<mxfile host="app.diagrams.net" modified="2021-04-20T20:37:04.534Z" agent="5.0 (Macintosh; Intel Mac OS X 11_2_3) AppleWebKit/537.36 (KHTML, like Gecko) Chrome/89.0.4389.128 Safari/537.36" etag="EKSFvePmC_yRLY-yw40S" version="14.4.3" type="github">
  <diagram id="ryVlB7PdQjzx0bgTUUh0" name="Page-1">
    <mxGraphModel dx="1298" dy="702" grid="1" gridSize="10" guides="1" tooltips="1" connect="1" arrows="1" fold="1" page="1" pageScale="1" pageWidth="1654" pageHeight="1169" math="0" shadow="0">
      <root>
        <mxCell id="0" />
        <mxCell id="1" parent="0" />
        <mxCell id="sZjGSIEbr4CvCZts8M8v-104" style="edgeStyle=none;rounded=0;orthogonalLoop=1;jettySize=auto;html=1;endArrow=none;endFill=0;" parent="1" source="sZjGSIEbr4CvCZts8M8v-1" target="sZjGSIEbr4CvCZts8M8v-103" edge="1">
          <mxGeometry relative="1" as="geometry" />
        </mxCell>
        <mxCell id="1LvPaBEl8QwY_Ij3Mwan-1" style="edgeStyle=none;rounded=0;orthogonalLoop=1;jettySize=auto;html=1;endArrow=none;endFill=0;" parent="1" source="sZjGSIEbr4CvCZts8M8v-1" target="sZjGSIEbr4CvCZts8M8v-66" edge="1">
          <mxGeometry relative="1" as="geometry" />
        </mxCell>
        <mxCell id="1LvPaBEl8QwY_Ij3Mwan-2" style="edgeStyle=none;rounded=0;orthogonalLoop=1;jettySize=auto;html=1;entryX=1;entryY=0.5;entryDx=0;entryDy=0;endArrow=none;endFill=0;" parent="1" source="sZjGSIEbr4CvCZts8M8v-1" target="sZjGSIEbr4CvCZts8M8v-46" edge="1">
          <mxGeometry relative="1" as="geometry" />
        </mxCell>
        <mxCell id="En3cOWEBAXN6RIPewKM6-15" style="edgeStyle=none;rounded=0;orthogonalLoop=1;jettySize=auto;html=1;endArrow=none;endFill=0;" edge="1" parent="1" source="sZjGSIEbr4CvCZts8M8v-1" target="En3cOWEBAXN6RIPewKM6-14">
          <mxGeometry relative="1" as="geometry" />
        </mxCell>
        <mxCell id="sZjGSIEbr4CvCZts8M8v-1" value="Attacker" style="shape=umlActor;verticalLabelPosition=bottom;verticalAlign=top;html=1;outlineConnect=0;fillColor=#000000;" parent="1" vertex="1">
          <mxGeometry x="1200" y="555" width="30" height="60" as="geometry" />
        </mxCell>
        <mxCell id="sZjGSIEbr4CvCZts8M8v-23" style="edgeStyle=none;rounded=0;orthogonalLoop=1;jettySize=auto;html=1;entryX=0;entryY=1;entryDx=0;entryDy=0;endArrow=none;endFill=0;" parent="1" source="sZjGSIEbr4CvCZts8M8v-7" target="sZjGSIEbr4CvCZts8M8v-9" edge="1">
          <mxGeometry relative="1" as="geometry" />
        </mxCell>
        <mxCell id="sZjGSIEbr4CvCZts8M8v-26" value="Posts" style="edgeLabel;html=1;align=center;verticalAlign=middle;resizable=0;points=[];" parent="sZjGSIEbr4CvCZts8M8v-23" vertex="1" connectable="0">
          <mxGeometry x="0.0434" y="1" relative="1" as="geometry">
            <mxPoint x="20.1" y="13.48" as="offset" />
          </mxGeometry>
        </mxCell>
        <mxCell id="sZjGSIEbr4CvCZts8M8v-78" style="edgeStyle=none;rounded=0;orthogonalLoop=1;jettySize=auto;html=1;entryX=0.5;entryY=0;entryDx=0;entryDy=0;exitX=0.5;exitY=1;exitDx=0;exitDy=0;dashed=1;" parent="1" source="sZjGSIEbr4CvCZts8M8v-9" target="sZjGSIEbr4CvCZts8M8v-64" edge="1">
          <mxGeometry relative="1" as="geometry" />
        </mxCell>
        <mxCell id="sZjGSIEbr4CvCZts8M8v-79" value="includes" style="edgeLabel;html=1;align=center;verticalAlign=middle;resizable=0;points=[];" parent="sZjGSIEbr4CvCZts8M8v-78" vertex="1" connectable="0">
          <mxGeometry x="0.5734" y="1" relative="1" as="geometry">
            <mxPoint x="-1" y="-18.33" as="offset" />
          </mxGeometry>
        </mxCell>
        <mxCell id="sZjGSIEbr4CvCZts8M8v-98" style="edgeStyle=none;rounded=0;orthogonalLoop=1;jettySize=auto;html=1;entryX=0;entryY=0;entryDx=0;entryDy=0;endArrow=none;endFill=0;" parent="1" source="sZjGSIEbr4CvCZts8M8v-7" target="sZjGSIEbr4CvCZts8M8v-9" edge="1">
          <mxGeometry relative="1" as="geometry" />
        </mxCell>
        <mxCell id="sZjGSIEbr4CvCZts8M8v-99" value="Views" style="edgeLabel;html=1;align=center;verticalAlign=middle;resizable=0;points=[];" parent="sZjGSIEbr4CvCZts8M8v-98" vertex="1" connectable="0">
          <mxGeometry x="0.2834" y="1" relative="1" as="geometry">
            <mxPoint as="offset" />
          </mxGeometry>
        </mxCell>
        <mxCell id="sZjGSIEbr4CvCZts8M8v-7" value="SecFit User" style="shape=umlActor;verticalLabelPosition=bottom;verticalAlign=top;html=1;outlineConnect=0;fillColor=#FBFFF2;" parent="1" vertex="1">
          <mxGeometry x="340" y="403.3399999999999" width="30" height="60" as="geometry" />
        </mxCell>
        <mxCell id="sZjGSIEbr4CvCZts8M8v-70" style="edgeStyle=none;rounded=0;orthogonalLoop=1;jettySize=auto;html=1;dashed=1;entryX=0;entryY=0.5;entryDx=0;entryDy=0;exitX=1;exitY=1;exitDx=0;exitDy=0;" parent="1" source="sZjGSIEbr4CvCZts8M8v-9" target="sZjGSIEbr4CvCZts8M8v-71" edge="1">
          <mxGeometry relative="1" as="geometry">
            <mxPoint x="625" y="480" as="targetPoint" />
          </mxGeometry>
        </mxCell>
        <mxCell id="sZjGSIEbr4CvCZts8M8v-73" value="&amp;lt;&amp;lt;extend&amp;gt;&amp;gt;" style="edgeLabel;html=1;align=center;verticalAlign=middle;resizable=0;points=[];" parent="sZjGSIEbr4CvCZts8M8v-70" vertex="1" connectable="0">
          <mxGeometry x="0.2839" y="2" relative="1" as="geometry">
            <mxPoint x="-7.43" y="-8.83" as="offset" />
          </mxGeometry>
        </mxCell>
        <mxCell id="sZjGSIEbr4CvCZts8M8v-56" style="edgeStyle=none;rounded=0;orthogonalLoop=1;jettySize=auto;html=1;entryX=0;entryY=0.5;entryDx=0;entryDy=0;dashed=1;" parent="1" source="sZjGSIEbr4CvCZts8M8v-9" target="sZjGSIEbr4CvCZts8M8v-55" edge="1">
          <mxGeometry relative="1" as="geometry" />
        </mxCell>
        <mxCell id="sZjGSIEbr4CvCZts8M8v-57" value="&amp;lt;&amp;lt;extend&amp;gt;&amp;gt;" style="edgeLabel;html=1;align=center;verticalAlign=middle;resizable=0;points=[];" parent="sZjGSIEbr4CvCZts8M8v-56" vertex="1" connectable="0">
          <mxGeometry x="0.1" y="4" relative="1" as="geometry">
            <mxPoint as="offset" />
          </mxGeometry>
        </mxCell>
        <mxCell id="sZjGSIEbr4CvCZts8M8v-9" value="Workout" style="ellipse;whiteSpace=wrap;html=1;" parent="1" vertex="1">
          <mxGeometry x="480" y="410" width="100" height="66.67" as="geometry" />
        </mxCell>
        <mxCell id="dVIonwqCxStYmmZDMTs0-17" style="edgeStyle=none;rounded=0;orthogonalLoop=1;jettySize=auto;html=1;entryX=0.5;entryY=0;entryDx=0;entryDy=0;dashed=1;endArrow=classic;endFill=1;" parent="1" source="sZjGSIEbr4CvCZts8M8v-11" target="sZjGSIEbr4CvCZts8M8v-9" edge="1">
          <mxGeometry relative="1" as="geometry" />
        </mxCell>
        <mxCell id="dVIonwqCxStYmmZDMTs0-18" value="&amp;lt;&amp;lt;threaten&amp;gt;&amp;gt;" style="edgeLabel;html=1;align=center;verticalAlign=middle;resizable=0;points=[];" parent="dVIonwqCxStYmmZDMTs0-17" vertex="1" connectable="0">
          <mxGeometry x="-0.1622" y="2" relative="1" as="geometry">
            <mxPoint y="-1" as="offset" />
          </mxGeometry>
        </mxCell>
        <mxCell id="sZjGSIEbr4CvCZts8M8v-11" value="&lt;font color=&quot;#fbfff2&quot;&gt;Man-in-the-middle&lt;br&gt;attack&lt;br&gt;&lt;/font&gt;" style="ellipse;whiteSpace=wrap;html=1;fillColor=#000000;" parent="1" vertex="1">
          <mxGeometry x="630" y="249.99999999999994" width="120" height="80" as="geometry" />
        </mxCell>
        <mxCell id="dVIonwqCxStYmmZDMTs0-7" style="edgeStyle=none;rounded=0;orthogonalLoop=1;jettySize=auto;html=1;entryX=1;entryY=0.5;entryDx=0;entryDy=0;endArrow=classic;endFill=1;dashed=1;" parent="1" source="sZjGSIEbr4CvCZts8M8v-13" target="sZjGSIEbr4CvCZts8M8v-11" edge="1">
          <mxGeometry relative="1" as="geometry" />
        </mxCell>
        <mxCell id="dVIonwqCxStYmmZDMTs0-8" value="&amp;lt;&amp;lt;mitigate&amp;gt;&amp;gt;" style="edgeLabel;html=1;align=center;verticalAlign=middle;resizable=0;points=[];" parent="dVIonwqCxStYmmZDMTs0-7" vertex="1" connectable="0">
          <mxGeometry x="-0.669" y="1" relative="1" as="geometry">
            <mxPoint x="-58.54" y="-0.7" as="offset" />
          </mxGeometry>
        </mxCell>
        <mxCell id="sZjGSIEbr4CvCZts8M8v-13" value="Use HTTPS" style="ellipse;whiteSpace=wrap;html=1;" parent="1" vertex="1">
          <mxGeometry x="947" y="220" width="100" height="66.67" as="geometry" />
        </mxCell>
        <mxCell id="dVIonwqCxStYmmZDMTs0-6" style="rounded=0;orthogonalLoop=1;jettySize=auto;html=1;entryX=1;entryY=0;entryDx=0;entryDy=0;endArrow=none;endFill=0;" parent="1" source="sZjGSIEbr4CvCZts8M8v-19" target="sZjGSIEbr4CvCZts8M8v-13" edge="1">
          <mxGeometry relative="1" as="geometry" />
        </mxCell>
        <mxCell id="dVIonwqCxStYmmZDMTs0-9" style="edgeStyle=none;rounded=0;orthogonalLoop=1;jettySize=auto;html=1;entryX=0.5;entryY=0;entryDx=0;entryDy=0;endArrow=none;endFill=0;" parent="1" source="sZjGSIEbr4CvCZts8M8v-19" target="dVIonwqCxStYmmZDMTs0-1" edge="1">
          <mxGeometry relative="1" as="geometry" />
        </mxCell>
        <mxCell id="En3cOWEBAXN6RIPewKM6-8" style="edgeStyle=none;rounded=0;orthogonalLoop=1;jettySize=auto;html=1;endArrow=none;endFill=0;" edge="1" parent="1" source="sZjGSIEbr4CvCZts8M8v-19" target="En3cOWEBAXN6RIPewKM6-7">
          <mxGeometry relative="1" as="geometry" />
        </mxCell>
        <mxCell id="sZjGSIEbr4CvCZts8M8v-19" value="SecFit Engineer" style="shape=umlActor;verticalLabelPosition=bottom;verticalAlign=top;html=1;outlineConnect=0;fillColor=#FBFFF2;" parent="1" vertex="1">
          <mxGeometry x="1090" y="150" width="30" height="60" as="geometry" />
        </mxCell>
        <mxCell id="sZjGSIEbr4CvCZts8M8v-59" style="edgeStyle=none;rounded=0;orthogonalLoop=1;jettySize=auto;html=1;dashed=1;" parent="1" source="sZjGSIEbr4CvCZts8M8v-46" target="sZjGSIEbr4CvCZts8M8v-54" edge="1">
          <mxGeometry relative="1" as="geometry" />
        </mxCell>
        <mxCell id="sZjGSIEbr4CvCZts8M8v-60" value="&amp;lt;&amp;lt;include&amp;gt;&amp;gt;" style="edgeLabel;html=1;align=center;verticalAlign=middle;resizable=0;points=[];" parent="sZjGSIEbr4CvCZts8M8v-59" vertex="1" connectable="0">
          <mxGeometry x="-0.1102" y="-3" relative="1" as="geometry">
            <mxPoint as="offset" />
          </mxGeometry>
        </mxCell>
        <mxCell id="sZjGSIEbr4CvCZts8M8v-72" value="&amp;lt;&amp;lt;exploit&amp;gt;&amp;gt;" style="edgeStyle=none;rounded=0;orthogonalLoop=1;jettySize=auto;html=1;entryX=1;entryY=1;entryDx=0;entryDy=0;dashed=1;" parent="1" source="sZjGSIEbr4CvCZts8M8v-46" target="sZjGSIEbr4CvCZts8M8v-71" edge="1">
          <mxGeometry x="-0.1564" relative="1" as="geometry">
            <mxPoint as="offset" />
          </mxGeometry>
        </mxCell>
        <mxCell id="sZjGSIEbr4CvCZts8M8v-46" value="&lt;font color=&quot;#fbfff2&quot;&gt;Session hijacking&lt;br&gt;&lt;/font&gt;" style="ellipse;whiteSpace=wrap;html=1;fillColor=#000000;" parent="1" vertex="1">
          <mxGeometry x="860" y="520" width="120" height="80" as="geometry" />
        </mxCell>
        <mxCell id="sZjGSIEbr4CvCZts8M8v-61" value="&amp;lt;&amp;lt;exploit&amp;gt;&amp;gt;" style="edgeStyle=none;rounded=0;orthogonalLoop=1;jettySize=auto;html=1;entryX=1;entryY=0.5;entryDx=0;entryDy=0;dashed=1;" parent="1" source="sZjGSIEbr4CvCZts8M8v-54" target="sZjGSIEbr4CvCZts8M8v-55" edge="1">
          <mxGeometry relative="1" as="geometry" />
        </mxCell>
        <mxCell id="dVIonwqCxStYmmZDMTs0-13" style="edgeStyle=none;rounded=0;orthogonalLoop=1;jettySize=auto;html=1;entryX=1;entryY=1;entryDx=0;entryDy=0;dashed=1;endArrow=classic;endFill=1;" parent="1" source="sZjGSIEbr4CvCZts8M8v-54" target="sZjGSIEbr4CvCZts8M8v-9" edge="1">
          <mxGeometry relative="1" as="geometry" />
        </mxCell>
        <mxCell id="dVIonwqCxStYmmZDMTs0-14" value="&amp;lt;&amp;lt;threaten&amp;gt;&amp;gt;" style="edgeLabel;html=1;align=center;verticalAlign=middle;resizable=0;points=[];" parent="dVIonwqCxStYmmZDMTs0-13" vertex="1" connectable="0">
          <mxGeometry x="0.1219" y="-3" relative="1" as="geometry">
            <mxPoint as="offset" />
          </mxGeometry>
        </mxCell>
        <mxCell id="sZjGSIEbr4CvCZts8M8v-54" value="&lt;font color=&quot;#fbfff2&quot;&gt;Request Forgery&lt;br&gt;&lt;/font&gt;" style="ellipse;whiteSpace=wrap;html=1;fillColor=#000000;" parent="1" vertex="1">
          <mxGeometry x="750" y="651.67" width="120" height="80" as="geometry" />
        </mxCell>
        <mxCell id="sZjGSIEbr4CvCZts8M8v-55" value="No CSRF Form" style="ellipse;whiteSpace=wrap;html=1;dashed=1;" parent="1" vertex="1">
          <mxGeometry x="580" y="585" width="100" height="66.67" as="geometry" />
        </mxCell>
        <mxCell id="sZjGSIEbr4CvCZts8M8v-74" style="edgeStyle=none;rounded=0;orthogonalLoop=1;jettySize=auto;html=1;dashed=1;" parent="1" source="sZjGSIEbr4CvCZts8M8v-64" target="sZjGSIEbr4CvCZts8M8v-65" edge="1">
          <mxGeometry relative="1" as="geometry" />
        </mxCell>
        <mxCell id="sZjGSIEbr4CvCZts8M8v-75" value="&amp;lt;&amp;lt;extend&amp;gt;&amp;gt;" style="edgeLabel;html=1;align=center;verticalAlign=middle;resizable=0;points=[];" parent="sZjGSIEbr4CvCZts8M8v-74" vertex="1" connectable="0">
          <mxGeometry x="0.3359" y="1" relative="1" as="geometry">
            <mxPoint x="-12.44" y="-1.09" as="offset" />
          </mxGeometry>
        </mxCell>
        <mxCell id="sZjGSIEbr4CvCZts8M8v-108" style="edgeStyle=none;rounded=0;orthogonalLoop=1;jettySize=auto;html=1;dashed=1;endArrow=classic;endFill=1;" parent="1" source="sZjGSIEbr4CvCZts8M8v-64" target="sZjGSIEbr4CvCZts8M8v-107" edge="1">
          <mxGeometry relative="1" as="geometry" />
        </mxCell>
        <mxCell id="sZjGSIEbr4CvCZts8M8v-109" value="&amp;lt;&amp;lt;extend&amp;gt;&amp;gt;" style="edgeLabel;html=1;align=center;verticalAlign=middle;resizable=0;points=[];" parent="sZjGSIEbr4CvCZts8M8v-108" vertex="1" connectable="0">
          <mxGeometry x="0.3475" y="2" relative="1" as="geometry">
            <mxPoint as="offset" />
          </mxGeometry>
        </mxCell>
        <mxCell id="sZjGSIEbr4CvCZts8M8v-64" value="Upload Files" style="ellipse;whiteSpace=wrap;html=1;" parent="1" vertex="1">
          <mxGeometry x="480" y="690" width="100" height="66.67" as="geometry" />
        </mxCell>
        <mxCell id="sZjGSIEbr4CvCZts8M8v-65" value="Missing file validation" style="ellipse;whiteSpace=wrap;html=1;dashed=1;" parent="1" vertex="1">
          <mxGeometry x="620" y="790" width="100" height="66.67" as="geometry" />
        </mxCell>
        <mxCell id="sZjGSIEbr4CvCZts8M8v-76" value="&amp;lt;&amp;lt;exploit&amp;gt;&amp;gt;" style="edgeStyle=none;rounded=0;orthogonalLoop=1;jettySize=auto;html=1;entryX=1;entryY=0.5;entryDx=0;entryDy=0;dashed=1;" parent="1" source="sZjGSIEbr4CvCZts8M8v-66" target="sZjGSIEbr4CvCZts8M8v-65" edge="1">
          <mxGeometry relative="1" as="geometry" />
        </mxCell>
        <mxCell id="dVIonwqCxStYmmZDMTs0-11" style="edgeStyle=none;rounded=0;orthogonalLoop=1;jettySize=auto;html=1;endArrow=classic;endFill=1;dashed=1;" parent="1" source="sZjGSIEbr4CvCZts8M8v-66" target="sZjGSIEbr4CvCZts8M8v-64" edge="1">
          <mxGeometry relative="1" as="geometry" />
        </mxCell>
        <mxCell id="dVIonwqCxStYmmZDMTs0-12" value="&amp;lt;&amp;lt;threaten&amp;gt;&amp;gt;" style="edgeLabel;html=1;align=center;verticalAlign=middle;resizable=0;points=[];" parent="dVIonwqCxStYmmZDMTs0-11" vertex="1" connectable="0">
          <mxGeometry x="0.4208" y="2" relative="1" as="geometry">
            <mxPoint x="39.83" y="0.12" as="offset" />
          </mxGeometry>
        </mxCell>
        <mxCell id="sZjGSIEbr4CvCZts8M8v-66" value="&lt;font color=&quot;#fbfff2&quot;&gt;Malicious file upload&lt;br&gt;&lt;/font&gt;" style="ellipse;whiteSpace=wrap;html=1;fillColor=#000000;" parent="1" vertex="1">
          <mxGeometry x="1130" y="730" width="120" height="80" as="geometry" />
        </mxCell>
        <mxCell id="sZjGSIEbr4CvCZts8M8v-71" value="Missing Cookie Attributes:&lt;br&gt;SameSite, Secure, HttpOnly" style="ellipse;whiteSpace=wrap;html=1;dashed=1;" parent="1" vertex="1">
          <mxGeometry x="670" y="463.34000000000003" width="140" height="66.67" as="geometry" />
        </mxCell>
        <mxCell id="1LvPaBEl8QwY_Ij3Mwan-3" style="edgeStyle=none;rounded=0;orthogonalLoop=1;jettySize=auto;html=1;endArrow=classic;endFill=1;dashed=1;" parent="1" source="sZjGSIEbr4CvCZts8M8v-103" target="sZjGSIEbr4CvCZts8M8v-64" edge="1">
          <mxGeometry relative="1" as="geometry" />
        </mxCell>
        <mxCell id="1LvPaBEl8QwY_Ij3Mwan-4" value="&amp;lt;&amp;lt;threaten&amp;gt;&amp;gt;" style="edgeLabel;html=1;align=center;verticalAlign=middle;resizable=0;points=[];" parent="1LvPaBEl8QwY_Ij3Mwan-3" vertex="1" connectable="0">
          <mxGeometry x="0.7942" y="5" relative="1" as="geometry">
            <mxPoint as="offset" />
          </mxGeometry>
        </mxCell>
        <mxCell id="En3cOWEBAXN6RIPewKM6-11" style="edgeStyle=none;rounded=0;orthogonalLoop=1;jettySize=auto;html=1;entryX=1;entryY=0.5;entryDx=0;entryDy=0;dashed=1;endArrow=classic;endFill=1;" edge="1" parent="1" source="sZjGSIEbr4CvCZts8M8v-103" target="sZjGSIEbr4CvCZts8M8v-107">
          <mxGeometry relative="1" as="geometry" />
        </mxCell>
        <mxCell id="En3cOWEBAXN6RIPewKM6-13" value="&amp;lt;&amp;lt;exploit&amp;gt;&amp;gt;" style="edgeLabel;html=1;align=center;verticalAlign=middle;resizable=0;points=[];" vertex="1" connectable="0" parent="En3cOWEBAXN6RIPewKM6-11">
          <mxGeometry x="0.6496" y="-3" relative="1" as="geometry">
            <mxPoint as="offset" />
          </mxGeometry>
        </mxCell>
        <mxCell id="sZjGSIEbr4CvCZts8M8v-103" value="&lt;font color=&quot;#fbfff2&quot;&gt;Access personal&lt;br&gt;files&lt;br&gt;&lt;/font&gt;" style="ellipse;whiteSpace=wrap;html=1;fillColor=#000000;" parent="1" vertex="1">
          <mxGeometry x="990" y="840" width="120" height="80" as="geometry" />
        </mxCell>
        <mxCell id="sZjGSIEbr4CvCZts8M8v-107" value="Missing Access Control" style="ellipse;whiteSpace=wrap;html=1;dashed=1;" parent="1" vertex="1">
          <mxGeometry x="595" y="890" width="100" height="66.67" as="geometry" />
        </mxCell>
        <mxCell id="En3cOWEBAXN6RIPewKM6-18" style="edgeStyle=none;rounded=0;orthogonalLoop=1;jettySize=auto;html=1;dashed=1;endArrow=classic;endFill=1;" edge="1" parent="1" source="dVIonwqCxStYmmZDMTs0-1" target="En3cOWEBAXN6RIPewKM6-14">
          <mxGeometry relative="1" as="geometry" />
        </mxCell>
        <mxCell id="En3cOWEBAXN6RIPewKM6-19" value="&amp;lt;&amp;lt;mitigate&amp;gt;&amp;gt;" style="edgeLabel;html=1;align=center;verticalAlign=middle;resizable=0;points=[];" vertex="1" connectable="0" parent="En3cOWEBAXN6RIPewKM6-18">
          <mxGeometry x="-0.6327" y="-2" relative="1" as="geometry">
            <mxPoint as="offset" />
          </mxGeometry>
        </mxCell>
        <mxCell id="dVIonwqCxStYmmZDMTs0-1" value="Access Control" style="ellipse;whiteSpace=wrap;html=1;" parent="1" vertex="1">
          <mxGeometry x="1130" y="286.66999999999996" width="100" height="66.67" as="geometry" />
        </mxCell>
        <mxCell id="En3cOWEBAXN6RIPewKM6-2" style="edgeStyle=none;rounded=0;orthogonalLoop=1;jettySize=auto;html=1;entryX=1;entryY=1;entryDx=0;entryDy=0;endArrow=none;endFill=0;" edge="1" parent="1" target="En3cOWEBAXN6RIPewKM6-1">
          <mxGeometry relative="1" as="geometry">
            <mxPoint x="1200" y="578" as="sourcePoint" />
            <mxPoint x="1080" y="591.67" as="targetPoint" />
          </mxGeometry>
        </mxCell>
        <mxCell id="En3cOWEBAXN6RIPewKM6-5" style="edgeStyle=none;rounded=0;orthogonalLoop=1;jettySize=auto;html=1;dashed=1;endArrow=classic;endFill=1;" edge="1" parent="1" source="En3cOWEBAXN6RIPewKM6-1" target="sZjGSIEbr4CvCZts8M8v-9">
          <mxGeometry relative="1" as="geometry" />
        </mxCell>
        <mxCell id="En3cOWEBAXN6RIPewKM6-6" value="&amp;lt;&amp;lt;threaten&amp;gt;&amp;gt;" style="edgeLabel;html=1;align=center;verticalAlign=middle;resizable=0;points=[];" vertex="1" connectable="0" parent="En3cOWEBAXN6RIPewKM6-5">
          <mxGeometry x="0.5879" relative="1" as="geometry">
            <mxPoint as="offset" />
          </mxGeometry>
        </mxCell>
        <mxCell id="En3cOWEBAXN6RIPewKM6-1" value="&lt;font color=&quot;#fbfff2&quot;&gt;Inject malicious code&lt;br&gt;&lt;/font&gt;" style="ellipse;whiteSpace=wrap;html=1;fillColor=#000000;" vertex="1" parent="1">
          <mxGeometry x="870" y="396.67" width="120" height="80" as="geometry" />
        </mxCell>
        <mxCell id="En3cOWEBAXN6RIPewKM6-9" style="edgeStyle=none;rounded=0;orthogonalLoop=1;jettySize=auto;html=1;endArrow=classic;endFill=1;dashed=1;" edge="1" parent="1" source="En3cOWEBAXN6RIPewKM6-7" target="En3cOWEBAXN6RIPewKM6-1">
          <mxGeometry relative="1" as="geometry" />
        </mxCell>
        <mxCell id="En3cOWEBAXN6RIPewKM6-10" value="&amp;lt;&amp;lt;mitigate&amp;gt;&amp;gt;" style="edgeLabel;html=1;align=center;verticalAlign=middle;resizable=0;points=[];" vertex="1" connectable="0" parent="En3cOWEBAXN6RIPewKM6-9">
          <mxGeometry x="0.1164" y="-1" relative="1" as="geometry">
            <mxPoint y="-1" as="offset" />
          </mxGeometry>
        </mxCell>
        <mxCell id="En3cOWEBAXN6RIPewKM6-7" value="Sanitize input" style="ellipse;whiteSpace=wrap;html=1;" vertex="1" parent="1">
          <mxGeometry x="990" y="293.3299999999999" width="100" height="66.67" as="geometry" />
        </mxCell>
        <mxCell id="En3cOWEBAXN6RIPewKM6-16" style="edgeStyle=none;rounded=0;orthogonalLoop=1;jettySize=auto;html=1;entryX=1;entryY=1;entryDx=0;entryDy=0;endArrow=classic;endFill=1;dashed=1;" edge="1" parent="1" source="En3cOWEBAXN6RIPewKM6-14" target="sZjGSIEbr4CvCZts8M8v-9">
          <mxGeometry relative="1" as="geometry" />
        </mxCell>
        <mxCell id="En3cOWEBAXN6RIPewKM6-17" value="&amp;lt;&amp;lt;threaten&amp;gt;&amp;gt;" style="edgeLabel;html=1;align=center;verticalAlign=middle;resizable=0;points=[];" vertex="1" connectable="0" parent="En3cOWEBAXN6RIPewKM6-16">
          <mxGeometry x="-0.8402" y="-2" relative="1" as="geometry">
            <mxPoint as="offset" />
          </mxGeometry>
        </mxCell>
        <mxCell id="En3cOWEBAXN6RIPewKM6-14" value="&lt;font color=&quot;#fbfff2&quot;&gt;Access personal&amp;nbsp;&lt;br&gt;information&lt;br&gt;&lt;/font&gt;" style="ellipse;whiteSpace=wrap;html=1;fillColor=#000000;" vertex="1" parent="1">
          <mxGeometry x="1000" y="640" width="120" height="80" as="geometry" />
        </mxCell>
      </root>
    </mxGraphModel>
  </diagram>
</mxfile>
